<mxfile host="65bd71144e">
    <diagram id="pYFwmTa6tGgw1SixVW9t" name="Page-1">
        <mxGraphModel dx="530" dy="451" grid="1" gridSize="10" guides="1" tooltips="1" connect="1" arrows="1" fold="1" page="1" pageScale="1" pageWidth="850" pageHeight="1100" math="0" shadow="0">
            <root>
                <mxCell id="0"/>
                <mxCell id="1" parent="0"/>
                <mxCell id="26" style="edgeStyle=none;html=1;entryX=0.5;entryY=0;entryDx=0;entryDy=0;fontFamily=Helvetica;fontSize=12;fontColor=#000000;exitX=0;exitY=0.5;exitDx=0;exitDy=0;" parent="1" source="2" target="3" edge="1">
                    <mxGeometry relative="1" as="geometry">
                        <Array as="points">
                            <mxPoint x="120" y="60"/>
                        </Array>
                    </mxGeometry>
                </mxCell>
                <mxCell id="27" style="edgeStyle=none;html=1;exitX=1;exitY=0.5;exitDx=0;exitDy=0;entryX=0.5;entryY=0;entryDx=0;entryDy=0;fontFamily=Helvetica;fontSize=12;fontColor=#000000;" parent="1" source="2" target="12" edge="1">
                    <mxGeometry relative="1" as="geometry">
                        <Array as="points">
                            <mxPoint x="420" y="60"/>
                        </Array>
                    </mxGeometry>
                </mxCell>
                <mxCell id="2" value="main.ts" style="rounded=0;whiteSpace=wrap;html=1;fontFamily=Helvetica;" parent="1" vertex="1">
                    <mxGeometry x="220" y="40" width="80" height="40" as="geometry"/>
                </mxCell>
                <mxCell id="28" style="edgeStyle=none;html=1;entryX=0.5;entryY=0;entryDx=0;entryDy=0;fontFamily=Helvetica;fontSize=12;fontColor=#000000;" parent="1" source="3" target="6" edge="1">
                    <mxGeometry relative="1" as="geometry"/>
                </mxCell>
                <mxCell id="3" value="App.vue" style="rounded=0;whiteSpace=wrap;html=1;fontFamily=Helvetica;" parent="1" vertex="1">
                    <mxGeometry x="80" y="120" width="80" height="40" as="geometry"/>
                </mxCell>
                <mxCell id="30" style="edgeStyle=none;html=1;entryX=0.5;entryY=0;entryDx=0;entryDy=0;fontFamily=Helvetica;fontSize=12;fontColor=#000000;" parent="1" source="6" target="9" edge="1">
                    <mxGeometry relative="1" as="geometry"/>
                </mxCell>
                <mxCell id="6" value="Components" style="swimlane;whiteSpace=wrap;html=1;fontFamily=Helvetica;" parent="1" vertex="1">
                    <mxGeometry x="40" y="200" width="160" height="160" as="geometry"/>
                </mxCell>
                <mxCell id="7" value="&lt;p style=&quot;background-color: rgb(255, 255, 255); line-height: 19px;&quot;&gt;&lt;font style=&quot;font-size: 12px;&quot;&gt;SideMenu.vue&lt;/font&gt;&lt;/p&gt;" style="rounded=0;whiteSpace=wrap;html=1;" parent="6" vertex="1">
                    <mxGeometry x="20" y="40" width="120" height="40" as="geometry"/>
                </mxCell>
                <mxCell id="8" value="&lt;div style=&quot;background-color: rgb(255, 255, 255); line-height: 19px;&quot;&gt;&lt;p style=&quot;line-height: 19px;&quot;&gt;&lt;font style=&quot;font-size: 12px;&quot;&gt;HeaderAlert.vue&lt;/font&gt;&lt;/p&gt;&lt;/div&gt;" style="rounded=0;whiteSpace=wrap;html=1;" parent="6" vertex="1">
                    <mxGeometry x="20" y="100" width="120" height="40" as="geometry"/>
                </mxCell>
                <mxCell id="9" value="Stores" style="swimlane;whiteSpace=wrap;html=1;fontFamily=Helvetica;" parent="1" vertex="1">
                    <mxGeometry x="40" y="400" width="160" height="160" as="geometry"/>
                </mxCell>
                <mxCell id="10" value="&lt;p style=&quot;background-color: rgb(255, 255, 255); line-height: 19px;&quot;&gt;&lt;font style=&quot;font-size: 12px;&quot;&gt;auth.ts&lt;/font&gt;&lt;/p&gt;" style="rounded=0;whiteSpace=wrap;html=1;" parent="9" vertex="1">
                    <mxGeometry x="20" y="40" width="120" height="40" as="geometry"/>
                </mxCell>
                <mxCell id="11" value="&lt;div style=&quot;background-color: rgb(255, 255, 255); line-height: 19px;&quot;&gt;&lt;p style=&quot;line-height: 19px;&quot;&gt;&lt;font style=&quot;font-size: 12px;&quot;&gt;header-alert.ts&lt;/font&gt;&lt;/p&gt;&lt;/div&gt;" style="rounded=0;whiteSpace=wrap;html=1;" parent="9" vertex="1">
                    <mxGeometry x="20" y="100" width="120" height="40" as="geometry"/>
                </mxCell>
                <mxCell id="29" style="edgeStyle=none;html=1;entryX=0.5;entryY=0;entryDx=0;entryDy=0;fontFamily=Helvetica;fontSize=12;fontColor=#000000;" parent="1" source="12" target="19" edge="1">
                    <mxGeometry relative="1" as="geometry"/>
                </mxCell>
                <mxCell id="12" value="router" style="rounded=0;whiteSpace=wrap;html=1;fontFamily=Helvetica;" parent="1" vertex="1">
                    <mxGeometry x="380" y="120" width="80" height="40" as="geometry"/>
                </mxCell>
                <mxCell id="13" value="Utils" style="swimlane;whiteSpace=wrap;html=1;fontFamily=Helvetica;" parent="1" vertex="1">
                    <mxGeometry x="440" y="520" width="160" height="160" as="geometry"/>
                </mxCell>
                <mxCell id="14" value="&lt;p style=&quot;background-color: rgb(255, 255, 255); line-height: 19px;&quot;&gt;&lt;font style=&quot;font-size: 12px;&quot;&gt;axios.ts&lt;/font&gt;&lt;/p&gt;" style="rounded=0;whiteSpace=wrap;html=1;" parent="13" vertex="1">
                    <mxGeometry x="20" y="40" width="120" height="40" as="geometry"/>
                </mxCell>
                <mxCell id="15" value="&lt;div style=&quot;background-color: rgb(255, 255, 255); line-height: 19px;&quot;&gt;&lt;p style=&quot;line-height: 19px;&quot;&gt;&lt;font style=&quot;font-size: 12px;&quot;&gt;conditions.ts&lt;/font&gt;&lt;/p&gt;&lt;/div&gt;" style="rounded=0;whiteSpace=wrap;html=1;" parent="13" vertex="1">
                    <mxGeometry x="20" y="100" width="120" height="40" as="geometry"/>
                </mxCell>
                <mxCell id="33" style="edgeStyle=none;html=1;" edge="1" parent="1" source="16">
                    <mxGeometry relative="1" as="geometry">
                        <mxPoint x="440" y="570" as="targetPoint"/>
                    </mxGeometry>
                </mxCell>
                <mxCell id="16" value="Repos" style="swimlane;whiteSpace=wrap;html=1;fontFamily=Helvetica;" parent="1" vertex="1">
                    <mxGeometry x="240" y="520" width="160" height="100" as="geometry"/>
                </mxCell>
                <mxCell id="17" value="&lt;p style=&quot;background-color: rgb(255, 255, 255); line-height: 19px;&quot;&gt;&lt;font style=&quot;font-size: 12px;&quot;&gt;users.ts&lt;/font&gt;&lt;/p&gt;" style="rounded=0;whiteSpace=wrap;html=1;" parent="16" vertex="1">
                    <mxGeometry x="20" y="40" width="120" height="40" as="geometry"/>
                </mxCell>
                <mxCell id="31" style="edgeStyle=none;html=1;exitX=0.25;exitY=1;exitDx=0;exitDy=0;fontFamily=Helvetica;fontSize=12;fontColor=#000000;entryX=0.813;entryY=0;entryDx=0;entryDy=0;entryPerimeter=0;" parent="1" source="19" target="16" edge="1">
                    <mxGeometry relative="1" as="geometry">
                        <mxPoint x="360" y="500" as="targetPoint"/>
                    </mxGeometry>
                </mxCell>
                <mxCell id="32" style="edgeStyle=none;html=1;exitX=0.75;exitY=1;exitDx=0;exitDy=0;entryX=0.187;entryY=0;entryDx=0;entryDy=0;entryPerimeter=0;fontFamily=Helvetica;fontSize=12;fontColor=#000000;" parent="1" source="19" target="13" edge="1">
                    <mxGeometry relative="1" as="geometry"/>
                </mxCell>
                <mxCell id="19" value="Views" style="swimlane;whiteSpace=wrap;html=1;fontFamily=Helvetica;" parent="1" vertex="1">
                    <mxGeometry x="320" y="200" width="200" height="280" as="geometry"/>
                </mxCell>
                <mxCell id="20" value="&lt;p style=&quot;background-color: rgb(255, 255, 255); line-height: 19px;&quot;&gt;RegistrationView.vue&lt;br&gt;&lt;/p&gt;" style="rounded=0;whiteSpace=wrap;html=1;" parent="19" vertex="1">
                    <mxGeometry x="20" y="40" width="160" height="40" as="geometry"/>
                </mxCell>
                <mxCell id="23" value="&lt;p style=&quot;background-color: rgb(255, 255, 255); line-height: 19px;&quot;&gt;LoginView.vue&lt;br&gt;&lt;/p&gt;" style="rounded=0;whiteSpace=wrap;html=1;" parent="19" vertex="1">
                    <mxGeometry x="20" y="100" width="160" height="40" as="geometry"/>
                </mxCell>
                <mxCell id="24" value="&lt;p style=&quot;background-color: rgb(255, 255, 255); line-height: 19px;&quot;&gt;UsersListView.vue&lt;br&gt;&lt;/p&gt;" style="rounded=0;whiteSpace=wrap;html=1;" parent="19" vertex="1">
                    <mxGeometry x="20" y="160" width="160" height="40" as="geometry"/>
                </mxCell>
                <mxCell id="25" value="&lt;p style=&quot;background-color: rgb(255, 255, 255); line-height: 19px;&quot;&gt;ChatPrivateView.vue&lt;br&gt;&lt;/p&gt;" style="rounded=0;whiteSpace=wrap;html=1;" parent="19" vertex="1">
                    <mxGeometry x="20" y="220" width="160" height="40" as="geometry"/>
                </mxCell>
            </root>
        </mxGraphModel>
    </diagram>
</mxfile>